<svg id="Product_Icons" data-name="Product Icons" xmlns="http://www.w3.org/2000/svg" viewBox="0 0 36 36"><defs><style>.cls-1{fill:#4285f4;}.cls-1,.cls-2{fill-rule:evenodd;}.cls-2{fill:#669df6;}</style></defs><title>Icon_36px_MLEngine_Color</title><g id="Shape"><polygon class="cls-1" points="24.96 22.69 26.07 20.81 31.36 20.81 33 18 29.72 12.38 25.12 12.38 23.53 9.59 21.75 9.59 21.75 7.69 24.66 7.69 26.25 10.5 28.63 10.5 25.36 4.88 18.94 4.88 18.94 12.38 21.55 12.38 22.64 14.25 18.94 14.25 18.94 18 22.34 18 23.91 15.19 28.13 15.19 29.21 17.06 25.01 17.06 23.44 19.88 18.94 19.88 18.94 26.44 24.05 26.44 22.97 28.31 18.94 28.31 18.94 31.13 25.36 31.13 30.27 22.69 27.14 22.69 26.04 24.56 21.75 24.56 21.75 22.69 24.96 22.69"/><polygon class="cls-2" points="11.04 22.69 9.93 20.81 4.64 20.81 3 18 6.28 12.38 10.88 12.38 12.47 9.59 14.25 9.59 14.25 7.69 11.34 7.69 9.75 10.5 7.37 10.5 10.64 4.88 17.06 4.88 17.06 12.38 14.45 12.38 13.36 14.25 17.06 14.25 17.06 18 13.66 18 12.09 15.19 7.87 15.19 6.79 17.06 10.99 17.06 12.56 19.88 17.06 19.88 17.06 26.44 11.95 26.44 13.03 28.31 17.06 28.31 17.06 31.13 10.64 31.13 5.73 22.69 8.86 22.69 9.96 24.56 14.25 24.56 14.25 22.69 11.04 22.69"/></g></svg>